<svg width="24" height="24" viewBox="0 0 24 24" fill="none" xmlns="http://www.w3.org/2000/svg">
<path d="M19.6 14.7998C19.824 14.7998 20 14.9758 20 15.1998V15.9998C20 17.3278 18.928 18.3998 17.6 18.3998C17.6 17.0798 16.52 15.9998 15.2 15.9998C13.88 15.9998 12.8 17.0798 12.8 18.3998H11.2C11.2 17.0798 10.12 15.9998 8.8 15.9998C7.48 15.9998 6.4 17.0798 6.4 18.3998C5.072 18.3998 4 17.3278 4 15.9998V14.3998C4 13.9598 4.36 13.5998 4.8 13.5998H12.4C13.504 13.5998 14.4 12.7038 14.4 11.5998V7.19984C14.4 6.75984 14.76 6.39984 15.2 6.39984H15.872C16.448 6.39984 16.976 6.71184 17.264 7.20784L17.776 8.10384C17.848 8.23184 17.752 8.39984 17.6 8.39984C16.496 8.39984 15.6 9.29584 15.6 10.3998V12.7998C15.6 13.9038 16.496 14.7998 17.6 14.7998H19.6Z" fill="#E6EBF6"/>
<path d="M8.80026 19.9997C9.68392 19.9997 10.4003 19.2834 10.4003 18.3997C10.4003 17.5161 9.68392 16.7997 8.80026 16.7997C7.91661 16.7997 7.20026 17.5161 7.20026 18.3997C7.20026 19.2834 7.91661 19.9997 8.80026 19.9997Z" fill="#E6EBF6"/>
<path d="M15.2001 19.9997C16.0838 19.9997 16.8001 19.2834 16.8001 18.3997C16.8001 17.5161 16.0838 16.7997 15.2001 16.7997C14.3164 16.7997 13.6001 17.5161 13.6001 18.3997C13.6001 19.2834 14.3164 19.9997 15.2001 19.9997Z" fill="#E6EBF6"/>
<path d="M19.9997 12.4242V13.6002H17.5997C17.1597 13.6002 16.7997 13.2402 16.7997 12.8002V10.4002C16.7997 9.96016 17.1597 9.60016 17.5997 9.60016H18.6317L19.7917 11.6322C19.9277 11.8722 19.9997 12.1442 19.9997 12.4242Z" fill="#E6EBF6"/>
<path d="M12.864 4H6.952C5.32 4 4 5.32 4 6.952V12.064C4 12.504 4.36 12.864 4.8 12.864H12.12C12.936 12.864 13.6 12.2 13.6 11.384V4.736C13.6 4.328 13.272 4 12.864 4ZM9.904 8.728C9.904 8.936 9.792 9.136 9.616 9.24L8.616 9.84C8.512 9.904 8.408 9.928 8.304 9.928C8.104 9.928 7.904 9.824 7.792 9.64C7.616 9.352 7.712 8.984 7.992 8.816L8.704 8.392V7.528C8.704 7.2 8.976 6.928 9.304 6.928C9.632 6.928 9.904 7.2 9.904 7.528V8.728Z" fill="#E6EBF6"/>
</svg>
