<svg width="32" height="31" viewBox="0 0 32 31" fill="none" xmlns="http://www.w3.org/2000/svg">
<path d="M1.33855 7.84363H22.0172C22.1673 7.84363 22.2987 7.79359 22.4113 7.69351C22.5238 7.59343 22.5927 7.46834 22.6177 7.31822L23.8186 1.16341C23.8686 0.813135 24.0188 0.531665 24.269 0.318999C24.5192 0.106333 24.8194 0 25.1697 0H30.6489C31.0242 0 31.3432 0.131353 31.6059 0.394058C31.8686 0.656763 32 0.975763 32 1.35106V1.5387C32 1.914 31.8686 2.23925 31.6059 2.51446C31.3432 2.78968 31.0242 2.92729 30.6489 2.92729H26.821C26.7209 2.92729 26.6333 2.95856 26.5582 3.02111C26.4832 3.08366 26.4332 3.16497 26.4081 3.26505L22.5801 23.681C22.5051 24.1564 22.2549 24.5067 21.8296 24.7318C21.6294 24.8569 21.4042 24.9195 21.154 24.9195H20.516C21.0665 25.545 21.3292 26.2768 21.3041 27.1149C21.2791 27.9531 20.9664 28.6599 20.3659 29.2353C19.7654 29.8108 19.0461 30.0985 18.208 30.0985C17.3698 30.0985 16.6443 29.8108 16.0313 29.2353C15.4183 28.6599 15.0993 27.9531 15.0743 27.1149C15.0493 26.2768 15.3245 25.545 15.8999 24.9195H8.91947C9.49492 25.545 9.76388 26.2768 9.72635 27.1149C9.68882 27.9531 9.36982 28.6599 8.76935 29.2353C8.16888 29.8108 7.44957 30.0985 6.61142 30.0985C5.77326 30.0985 5.05395 29.8108 4.45348 29.2353C3.85301 28.6599 3.54027 27.9531 3.51525 27.1149C3.49023 26.2768 3.75293 25.545 4.30336 24.9195H3.66536C3.29007 24.9195 2.97107 24.7881 2.70837 24.5254C2.44566 24.2627 2.31431 23.9437 2.31431 23.5684V23.2682C2.31431 22.8929 2.45192 22.5739 2.72713 22.3112C3.00235 22.0485 3.3276 21.9171 3.70289 21.9171H19.4277C19.5778 21.9171 19.7091 21.8671 19.8217 21.767C19.9343 21.6669 20.0031 21.5543 20.0281 21.4292L20.4034 19.4027C20.4285 19.2025 20.3784 19.0274 20.2533 18.8773C20.1282 18.7271 19.9781 18.6646 19.803 18.6896H2.53948C2.21423 18.6896 1.93276 18.5895 1.69507 18.3894C1.45739 18.1892 1.31353 17.9265 1.26349 17.6013L0.0250198 9.38233C-0.0500389 8.98202 0.0437844 8.62549 0.30649 8.31275C0.569195 8 0.913214 7.84363 1.33855 7.84363Z" fill="#DFDFDF"/>
</svg>
