<svg width="72" height="72" viewBox="0 0 72 72" fill="none" xmlns="http://www.w3.org/2000/svg">
<path d="M31.7041 2.68933C33.1891 1.20429 33.9316 0.461756 34.7878 0.183544C35.5411 -0.0611812 36.3523 -0.0611812 37.1056 0.183544C37.9618 0.461756 38.7043 1.20426 40.1893 2.68933L45.4393 7.93933C46.088 8.58789 46.412 8.91219 46.7908 9.14409C47.126 9.34971 47.492 9.50121 47.8745 9.59308C48.3061 9.69669 48.7648 9.69669 49.682 9.69669H56.1965C58.2969 9.69669 59.3469 9.69669 60.149 10.1054C60.8548 10.465 61.4285 11.0386 61.7881 11.7442C62.1965 12.5464 62.1965 13.5965 62.1965 15.6967V22.2114C62.1965 23.1286 62.1965 23.5873 62.3004 24.0188C62.3923 24.4015 62.5438 24.7672 62.7493 25.1028C62.9814 25.4812 63.3054 25.8055 63.9541 26.4541L69.2041 31.7041C70.6891 33.1891 71.4316 33.9316 71.7099 34.7881C71.9544 35.5411 71.9544 36.3522 71.7099 37.1056C71.4316 37.9617 70.6891 38.7042 69.2041 40.1892L63.9541 45.4392C63.3054 46.0879 62.9814 46.4123 62.7493 46.7907C62.5438 47.1263 62.3923 47.4919 62.3004 47.8744C62.1965 48.3061 62.1965 48.7647 62.1965 49.6819V56.1968C62.1965 58.2968 62.1965 59.3472 61.7881 60.1493C61.4285 60.8547 60.8548 61.4284 60.149 61.7881C59.3469 62.1968 58.2969 62.1968 56.1965 62.1968H49.682C48.7648 62.1968 48.3061 62.1968 47.8745 62.3003C47.492 62.3922 47.126 62.5437 46.7908 62.7492C46.412 62.9813 46.088 63.3053 45.4393 63.9541L40.1893 69.2041C38.7043 70.6891 37.9618 71.4316 37.1056 71.7098C36.3523 71.9547 35.5411 71.9547 34.7878 71.7098C33.9316 71.4316 33.1891 70.6891 31.7041 69.2041L26.4541 63.9541C25.8055 63.3053 25.4812 62.9813 25.1027 62.7492C24.7672 62.5437 24.4015 62.3922 24.0188 62.3003C23.5872 62.1968 23.1286 62.1968 22.2114 62.1968H15.6967C13.5965 62.1968 12.5464 62.1968 11.7442 61.7881C11.0386 61.4284 10.465 60.8547 10.1054 60.1493C9.69669 59.3472 9.69669 58.2968 9.69669 56.1968V49.6819C9.69669 48.7647 9.69669 48.3061 9.59308 47.8744C9.50121 47.4919 9.34971 47.1263 9.14409 46.7907C8.91219 46.4123 8.58789 46.0879 7.93933 45.4392L2.68933 40.1892C1.20426 38.7042 0.461719 37.9617 0.183544 37.1056C-0.0611812 36.3522 -0.0611812 35.5411 0.183544 34.7881C0.461719 33.9316 1.20426 33.1891 2.68933 31.7041L7.93933 26.4541C8.58789 25.8055 8.91219 25.4812 9.14409 25.1028C9.34971 24.7672 9.50121 24.4015 9.59308 24.0188C9.69669 23.5873 9.69669 23.1286 9.69669 22.2114V15.6967C9.69669 13.5965 9.69669 12.5464 10.1054 11.7442C10.465 11.0386 11.0386 10.465 11.7442 10.1054C12.5464 9.69669 13.5965 9.69669 15.6967 9.69669H22.2114C23.1286 9.69669 23.5872 9.69669 24.0188 9.59308C24.4015 9.50121 24.7672 9.34971 25.1027 9.14409C25.4812 8.91219 25.8055 8.58789 26.4541 7.93933L31.7041 2.68933Z" fill="#2E61E2"/>
</svg>
