<svg width="18" height="19" viewBox="0 0 18 19" fill="none" xmlns="http://www.w3.org/2000/svg">
<path d="M8.2475 1.26874C8.47803 0.534734 8.59325 0.167742 8.76373 0.0660271C8.91121 -0.022009 9.08877 -0.022009 9.23635 0.0660271C9.40674 0.167742 9.52195 0.534734 9.75248 1.26874L11.2764 6.12125C11.342 6.33015 11.3748 6.4346 11.4339 6.51239C11.4861 6.5811 11.5527 6.63466 11.6279 6.66839C11.713 6.70658 11.8128 6.70883 12.0126 6.71334L16.6529 6.81801C17.3549 6.83383 17.7058 6.84176 17.8459 6.98974C17.9671 7.11781 18.022 7.30478 17.9919 7.48726C17.9573 7.69813 17.6775 7.93279 17.1181 8.40235L13.4195 11.5059C13.2603 11.6396 13.1807 11.7064 13.1321 11.7926C13.0892 11.8689 13.0638 11.9555 13.058 12.045C13.0515 12.1464 13.0804 12.2523 13.1383 12.464L14.4823 17.3812C14.6856 18.125 14.7873 18.4969 14.7034 18.69C14.6308 18.8572 14.4871 18.9728 14.321 18.9976C14.1291 19.0261 13.841 18.8042 13.2647 18.3603L9.45503 15.4261C9.29102 15.2997 9.20907 15.2366 9.11994 15.212C9.04117 15.1904 8.95881 15.1904 8.88014 15.212C8.79102 15.2366 8.70896 15.2997 8.54495 15.4261L4.73529 18.3603C4.15903 18.8042 3.8709 19.0261 3.679 18.9976C3.51293 18.9728 3.36923 18.8572 3.29665 18.69C3.21278 18.4969 3.31443 18.125 3.51773 17.3812L4.86174 12.464C4.9196 12.2523 4.94852 12.1464 4.94201 12.045C4.93626 11.9555 4.91082 11.8689 4.86791 11.7926C4.81935 11.7064 4.73973 11.6396 4.58051 11.5059L0.881988 8.40235C0.322536 7.93279 0.0428099 7.69813 0.00808565 7.48726C-0.0219782 7.30478 0.0329116 7.11781 0.154133 6.98974C0.294185 6.84176 0.645142 6.83385 1.34705 6.81801L5.98738 6.71334C6.18715 6.70883 6.28704 6.70658 6.37214 6.66839C6.44731 6.63466 6.51392 6.5811 6.56613 6.51239C6.62524 6.4346 6.65804 6.33015 6.72365 6.12125L8.2475 1.26874Z" fill="#2E61E2"/>
</svg>
