<svg width="9" height="19" viewBox="0 0 9 19" fill="none" xmlns="http://www.w3.org/2000/svg">
<path d="M8.28211 1.26852C8.51361 0.534509 8.8288 0.101716 9 0C9 1.65339 9 12.1248 9 15.4316C7.50835 15.8413 6.05797 17.3611 4.75516 18.3603C4.17648 18.8042 3.88714 19.0261 3.69444 18.9976C3.52767 18.9728 3.38337 18.8572 3.31048 18.69C3.22626 18.4969 3.32834 18.125 3.53249 17.3812L4.88214 12.4639C4.94024 12.2522 4.96929 12.1464 4.96275 12.045C4.95697 11.9555 4.93143 11.8688 4.88834 11.7925C4.83957 11.7063 4.75962 11.6395 4.59973 11.5058L0.885689 8.40222C0.323889 7.93266 0.0429896 7.69799 0.00811958 7.48712C-0.0220704 7.30464 0.0330497 7.11766 0.15478 6.98959C0.29542 6.84161 0.64785 6.8337 1.3527 6.81786L6.01251 6.71319C6.21311 6.70868 6.31342 6.70643 6.39888 6.66824C6.47437 6.63451 6.54125 6.58095 6.59368 6.51224C6.65304 6.43445 6.68598 6.33 6.75186 6.12109L8.28211 1.26852Z" fill="#2E61E2"/>
</svg>
