<svg width="48" height="49" viewBox="0 0 48 49" fill="none" xmlns="http://www.w3.org/2000/svg">
<path fill-rule="evenodd" clip-rule="evenodd" d="M25.6384 48.1308H2.64923C1.18567 48.1308 0 46.9411 0 45.4742V2.65643C0 1.18909 1.18586 0 2.64923 0H45.351C46.814 0 48 1.18909 48 2.65643V45.4742C48 46.9413 46.8138 48.1308 45.351 48.1308H33.1193V29.4919H39.3585L40.2928 22.228H33.1193V17.5904C33.1193 15.4874 33.7017 14.0542 36.7093 14.0542L40.5453 14.0525V7.55563C39.8819 7.4671 37.6048 7.26933 34.9556 7.26933C29.4248 7.26933 25.6384 10.6545 25.6384 16.8711V22.228H19.3831V29.4919H25.6384V48.1308Z" fill="white"/>
</svg>
