<svg width="32" height="30" viewBox="0 0 32 30" fill="none" xmlns="http://www.w3.org/2000/svg">
<path d="M16 14.2947C17.9449 14.2947 19.8101 13.5417 21.1853 12.2013C22.5605 10.8609 23.3331 9.04294 23.3331 7.14735C23.3331 5.25175 22.5605 3.4338 21.1853 2.09341C19.8101 0.753022 17.9449 0 16 0C14.0551 0 12.1899 0.753022 10.8147 2.09341C9.4395 3.4338 8.66691 5.25175 8.66691 7.14735C8.66691 9.04294 9.4395 10.8609 10.8147 12.2013C12.1899 13.5417 14.0551 14.2947 16 14.2947ZM16 17.4349C6.25018 17.4349 0 22.679 0 25.2323V30H32V25.2323C32 22.1445 26.0829 17.4349 16 17.4349Z" fill="#DFDFDF"/>
</svg>
