<svg width="48" height="49" viewBox="0 0 48 49" fill="none" xmlns="http://www.w3.org/2000/svg">
<path d="M36 3.00818H12C7.02944 3.00818 3 7.0486 3 12.0327V36.0981C3 41.0822 7.02944 45.1226 12 45.1226H36C40.9706 45.1226 45 41.0822 45 36.0981V12.0327C45 7.0486 40.9706 3.00818 36 3.00818Z" fill="url(#paint0_radial_55_14)"/>
<path d="M36 3.00818H12C7.02944 3.00818 3 7.0486 3 12.0327V36.0981C3 41.0822 7.02944 45.1226 12 45.1226H36C40.9706 45.1226 45 41.0822 45 36.0981V12.0327C45 7.0486 40.9706 3.00818 36 3.00818Z" fill="url(#paint1_radial_55_14)"/>
<path d="M36 3.00818H12C7.02944 3.00818 3 7.0486 3 12.0327V36.0981C3 41.0822 7.02944 45.1226 12 45.1226H36C40.9706 45.1226 45 41.0822 45 36.0981V12.0327C45 7.0486 40.9706 3.00818 36 3.00818Z" fill="url(#paint2_radial_55_14)"/>
<path d="M34.5 15.7929C34.5 17.0389 33.4926 18.0491 32.25 18.0491C31.0074 18.0491 30 17.0389 30 15.7929C30 14.5469 31.0074 13.5368 32.25 13.5368C33.4926 13.5368 34.5 14.5469 34.5 15.7929Z" fill="white"/>
<path fill-rule="evenodd" clip-rule="evenodd" d="M24 31.5859C28.1421 31.5859 31.5 28.2188 31.5 24.0654C31.5 19.912 28.1421 16.545 24 16.545C19.8579 16.545 16.5 19.912 16.5 24.0654C16.5 28.2188 19.8579 31.5859 24 31.5859ZM24 28.5777C26.4854 28.5777 28.5 26.5575 28.5 24.0654C28.5 21.5733 26.4854 19.5532 24 19.5532C21.5146 19.5532 19.5 21.5733 19.5 24.0654C19.5 26.5575 21.5146 28.5777 24 28.5777Z" fill="white"/>
<path fill-rule="evenodd" clip-rule="evenodd" d="M9 23.4638C9 18.4096 9 15.8824 9.98094 13.952C10.8438 12.2539 12.2206 10.8734 13.9141 10.0081C15.8393 9.02454 18.3596 9.02454 23.4 9.02454H24.6C29.6404 9.02454 32.1607 9.02454 34.0858 10.0081C35.7793 10.8734 37.1562 12.2539 38.019 13.952C39 15.8824 39 18.4096 39 23.4638V24.667C39 29.7212 39 32.2484 38.019 34.1787C37.1562 35.8769 35.7793 37.2575 34.0858 38.1226C32.1607 39.1063 29.6404 39.1063 24.6 39.1063H23.4C18.3596 39.1063 15.8393 39.1063 13.9141 38.1226C12.2206 37.2575 10.8438 35.8769 9.98094 34.1787C9 32.2484 9 29.7212 9 24.667V23.4638ZM23.4 12.0327H24.6C27.1698 12.0327 28.9166 12.0351 30.2669 12.1457C31.5822 12.2534 32.2548 12.4487 32.724 12.6884C33.8529 13.2653 34.7707 14.1856 35.346 15.3176C35.5851 15.7881 35.78 16.4625 35.8874 17.7815C35.9976 19.1355 36 20.887 36 23.4638V24.667C36 27.2438 35.9976 28.9954 35.8874 30.3493C35.78 31.6683 35.5851 32.3427 35.346 32.8132C34.7707 33.9452 33.8529 34.8655 32.724 35.4423C32.2548 35.6821 31.5822 35.8775 30.2669 35.9851C28.9166 36.0957 27.1698 36.0981 24.6 36.0981H23.4C20.8302 36.0981 19.0834 36.0957 17.7331 35.9851C16.4178 35.8775 15.7452 35.6821 15.276 35.4423C14.1471 34.8655 13.2292 33.9452 12.654 32.8132C12.4149 32.3427 12.2201 31.6683 12.1126 30.3493C12.0023 28.9954 12 27.2438 12 24.667V23.4638C12 20.887 12.0023 19.1355 12.1126 17.7815C12.2201 16.4625 12.4149 15.7881 12.654 15.3176C13.2292 14.1856 14.1471 13.2653 15.276 12.6884C15.7452 12.4487 16.4178 12.2534 17.7331 12.1457C19.0834 12.0351 20.8302 12.0327 23.4 12.0327Z" fill="white"/>
<defs>
<radialGradient id="paint0_radial_55_14" cx="0" cy="0" r="1" gradientUnits="userSpaceOnUse" gradientTransform="translate(18 34.594) rotate(-55.4487) scale(38.3501 38.313)">
<stop stop-color="#B13589"/>
<stop offset="0.79309" stop-color="#C62F94"/>
<stop offset="1" stop-color="#8A3AC8"/>
</radialGradient>
<radialGradient id="paint1_radial_55_14" cx="0" cy="0" r="1" gradientUnits="userSpaceOnUse" gradientTransform="translate(16.5 46.6267) rotate(-65.1957) scale(33.9673 33.9076)">
<stop stop-color="#E0E8B7"/>
<stop offset="0.444662" stop-color="#FB8A2E"/>
<stop offset="0.71474" stop-color="#E2425C"/>
<stop offset="1" stop-color="#E2425C" stop-opacity="0"/>
</radialGradient>
<radialGradient id="paint2_radial_55_14" cx="0" cy="0" r="1" gradientUnits="userSpaceOnUse" gradientTransform="translate(0.750001 4.51227) rotate(-8.15196) scale(58.3395 12.5109)">
<stop offset="0.156701" stop-color="#406ADC"/>
<stop offset="0.467799" stop-color="#6A45BE"/>
<stop offset="1" stop-color="#6A45BE" stop-opacity="0"/>
</radialGradient>
</defs>
</svg>
