<svg width="148" height="33" viewBox="0 0 148 33" fill="none" xmlns="http://www.w3.org/2000/svg">
<path d="M6.456 19.776H13.624V24H0.984V1.536H6.456V19.776ZM33.706 14.784C33.706 15.296 33.674 15.8293 33.61 16.384H21.226C21.3113 17.4933 21.6633 18.3467 22.282 18.944C22.922 19.52 23.7007 19.808 24.618 19.808C25.9833 19.808 26.9327 19.232 27.466 18.08H33.29C32.9913 19.2533 32.4473 20.3093 31.658 21.248C30.89 22.1867 29.9193 22.9227 28.746 23.456C27.5727 23.9893 26.2607 24.256 24.81 24.256C23.0607 24.256 21.5033 23.8827 20.138 23.136C18.7727 22.3893 17.706 21.3227 16.938 19.936C16.17 18.5493 15.786 16.928 15.786 15.072C15.786 13.216 16.1593 11.5947 16.906 10.208C17.674 8.82133 18.7407 7.75467 20.106 7.008C21.4713 6.26133 23.0393 5.888 24.81 5.888C26.538 5.888 28.074 6.25067 29.418 6.976C30.762 7.70133 31.8073 8.736 32.554 10.08C33.322 11.424 33.706 12.992 33.706 14.784ZM28.106 13.344C28.106 12.4053 27.786 11.6587 27.146 11.104C26.506 10.5493 25.706 10.272 24.746 10.272C23.8287 10.272 23.05 10.5387 22.41 11.072C21.7913 11.6053 21.4073 12.3627 21.258 13.344H28.106ZM45.2647 18.88L49.1367 6.144H54.9608L48.6247 24H41.8727L35.5367 6.144H41.3927L45.2647 18.88ZM74.736 14.784C74.736 15.296 74.704 15.8293 74.64 16.384H62.256C62.3413 17.4933 62.6933 18.3467 63.312 18.944C63.952 19.52 64.7307 19.808 65.648 19.808C67.0133 19.808 67.9627 19.232 68.496 18.08H74.32C74.0213 19.2533 73.4773 20.3093 72.688 21.248C71.92 22.1867 70.9493 22.9227 69.776 23.456C68.6027 23.9893 67.2907 24.256 65.84 24.256C64.0907 24.256 62.5333 23.8827 61.168 23.136C59.8027 22.3893 58.736 21.3227 57.968 19.936C57.2 18.5493 56.816 16.928 56.816 15.072C56.816 13.216 57.1893 11.5947 57.936 10.208C58.704 8.82133 59.7707 7.75467 61.136 7.008C62.5013 6.26133 64.0693 5.888 65.84 5.888C67.568 5.888 69.104 6.25067 70.448 6.976C71.792 7.70133 72.8373 8.736 73.584 10.08C74.352 11.424 74.736 12.992 74.736 14.784ZM69.136 13.344C69.136 12.4053 68.816 11.6587 68.176 11.104C67.536 10.5493 66.736 10.272 65.776 10.272C64.8587 10.272 64.08 10.5387 63.44 11.072C62.8213 11.6053 62.4373 12.3627 62.288 13.344H69.136ZM83.7347 0.32V24H78.2627V0.32H83.7347ZM113.393 6.144V24H107.921V21.568C107.367 22.3573 106.609 22.9973 105.649 23.488C104.711 23.9573 103.665 24.192 102.513 24.192C101.148 24.192 99.9428 23.8933 98.8975 23.296C97.8522 22.6773 97.0415 21.792 96.4655 20.64C95.8895 19.488 95.6015 18.1333 95.6015 16.576V6.144H101.041V15.84C101.041 17.0347 101.351 17.9627 101.969 18.624C102.588 19.2853 103.42 19.616 104.465 19.616C105.532 19.616 106.375 19.2853 106.993 18.624C107.612 17.9627 107.921 17.0347 107.921 15.84V6.144H113.393ZM123.436 8.672C123.969 7.84 124.705 7.168 125.644 6.656C126.583 6.144 127.681 5.888 128.94 5.888C130.412 5.888 131.745 6.26133 132.94 7.008C134.135 7.75467 135.073 8.82133 135.756 10.208C136.46 11.5947 136.812 13.2053 136.812 15.04C136.812 16.8747 136.46 18.496 135.756 19.904C135.073 21.2907 134.135 22.368 132.94 23.136C131.745 23.8827 130.412 24.256 128.94 24.256C127.703 24.256 126.604 24 125.644 23.488C124.705 22.976 123.969 22.3147 123.436 21.504V32.512H117.964V6.144H123.436V8.672ZM131.244 15.04C131.244 13.6747 130.86 12.608 130.092 11.84C129.345 11.0507 128.417 10.656 127.308 10.656C126.22 10.656 125.292 11.0507 124.524 11.84C123.777 12.6293 123.404 13.7067 123.404 15.072C123.404 16.4373 123.777 17.5147 124.524 18.304C125.292 19.0933 126.22 19.488 127.308 19.488C128.396 19.488 129.324 19.0933 130.092 18.304C130.86 17.4933 131.244 16.4053 131.244 15.04ZM147.523 0.735998L146.883 16.064H142.243L141.603 0.735998H147.523ZM144.643 24.256C143.683 24.256 142.893 23.9787 142.275 23.424C141.677 22.848 141.379 22.144 141.379 21.312C141.379 20.4587 141.677 19.744 142.275 19.168C142.893 18.592 143.683 18.304 144.643 18.304C145.581 18.304 146.349 18.592 146.947 19.168C147.565 19.744 147.875 20.4587 147.875 21.312C147.875 22.144 147.565 22.848 146.947 23.424C146.349 23.9787 145.581 24.256 144.643 24.256Z" fill="#DFDFDF"/>
</svg>
