<svg width="48" height="49" viewBox="0 0 48 49" fill="none" xmlns="http://www.w3.org/2000/svg">
<rect x="6" y="10.6975" width="35" height="25" fill="#D9D9D9"/>
<path fill-rule="evenodd" clip-rule="evenodd" d="M19.044 30.3524L19.0425 16.7332L32.0115 23.5663L19.044 30.3524ZM47.52 14.3732C47.52 14.3732 47.0505 11.0332 45.612 9.56233C43.7865 7.63102 41.7405 7.62191 40.803 7.50982C34.086 7.01904 24.0105 7.01904 24.0105 7.01904H23.9895C23.9895 7.01904 13.914 7.01904 7.19701 7.50982C6.25801 7.62191 4.21351 7.63102 2.38651 9.56233C0.948005 11.0332 0.479996 14.3732 0.479996 14.3732C0.479996 14.3732 0 18.2964 0 22.2181V25.896C0 29.8192 0.479996 33.7409 0.479996 33.7409C0.479996 33.7409 0.948005 37.0809 2.38651 38.5518C4.21351 40.4831 6.61199 40.4225 7.67999 40.6239C11.52 40.9966 24 41.1117 24 41.1117C24 41.1117 34.086 41.0965 40.803 40.6058C41.7405 40.4922 43.7865 40.4831 45.612 38.5518C47.0505 37.0809 47.52 33.7409 47.52 33.7409C47.52 33.7409 48 29.8192 48 25.896V22.2181C48 18.2964 47.52 14.3732 47.52 14.3732Z" fill="#CE1312"/>
</svg>
